# WaveFront *.obj file (generated by Cinema 4D)

mtllib ./Label.mtl

v 1.947960 1.202620 1.591550
v 1.947960 6.383821 1.591550
v 2.221026 1.202620 1.180941
v 2.221026 6.383821 1.180941
v 2.408740 1.202620 0.724948
v 2.408740 6.383821 0.724948
v 2.503887 1.202620 0.241097
v 2.503887 6.383821 0.241097
v 2.502811 1.202620 -0.252020
v 2.502811 6.383821 -0.252020
v 2.405554 1.202620 -0.735452
v 2.405554 6.383821 -0.735452
v 2.215852 1.202620 -1.190620
v 2.215852 6.383821 -1.190620
v 1.940997 1.202620 -1.600034
v 1.940997 6.383821 -1.600034
v 1.591550 1.202620 -1.947960
v 1.591550 6.383821 -1.947960
v 1.180941 1.202620 -2.221026
v 1.180941 6.383821 -2.221026
v 0.724948 1.202620 -2.408740
v 0.724948 6.383821 -2.408740
v 0.241097 1.202620 -2.503887
v 0.241097 6.383821 -2.503887
v -0.252020 1.202620 -2.502811
v -0.252020 6.383821 -2.502811
v -0.735452 1.202620 -2.405554
v -0.735452 6.383821 -2.405554
v -1.190620 1.202620 -2.215852
v -1.190620 6.383821 -2.215852
v -1.600034 1.202620 -1.940997
v -1.600034 6.383821 -1.940997
v -1.947960 1.202620 -1.591550
v -1.947960 6.383821 -1.591550
v -2.221026 1.202620 -1.180941
v -2.221026 6.383821 -1.180941
v -2.408740 1.202620 -0.724948
v -2.408740 6.383821 -0.724948
v -2.503887 1.202620 -0.241097
v -2.503887 6.383821 -0.241097
v -2.502811 1.202620 0.252020
v -2.502811 6.383821 0.252020
v -2.405554 1.202620 0.735452
v -2.405554 6.383821 0.735452
v -2.215852 1.202620 1.190620
v -2.215852 6.383821 1.190620
v -1.940997 1.202620 1.600034
v -1.940997 6.383821 1.600034
v -1.591550 1.202620 1.947960
v -1.591550 6.383821 1.947960
v -1.180941 1.202620 2.221026
v -1.180941 6.383821 2.221026
v -0.724948 1.202620 2.408740
v -0.724948 6.383821 2.408740
v -0.241097 1.202620 2.503887
v -0.241097 6.383821 2.503887
v 0.252020 1.202620 2.502811
v 0.252020 6.383821 2.502811
v 0.735452 1.202620 2.405554
v 0.735452 6.383821 2.405554
v 1.190620 1.202620 2.215852
v 1.190620 6.383821 2.215852
v 1.600034 1.202620 1.940997
v 1.600034 6.383821 1.940997
v 0.005461 1.202620 2.503349
v 0.005461 6.383821 2.503349
v -0.493736 1.202620 -2.454183
v -0.493736 6.383821 -2.454183
v 0.483023 1.202620 -2.456314
v 0.483023 6.383821 -2.456314
v -0.963036 1.202620 -2.310703
v -0.963036 6.383821 -2.310703
v 0.493736 1.202620 2.454183
v 0.493736 6.383821 2.454183
v 0.952945 1.202620 -2.314883
v 0.952945 6.383821 -2.314883
v -0.483023 1.202620 2.456314
v -0.483023 6.383821 2.456314
v -1.395327 1.202620 -2.078425
v -1.395327 6.383821 -2.078425
v 1.386245 1.202620 -2.084493
v 1.386245 6.383821 -2.084493
v -1.773997 1.202620 -1.766273
v -1.773997 6.383821 -1.766273
v 0.963036 1.202620 2.310703
v 0.963036 6.383821 2.310703
v 1.766273 1.202620 -1.773997
v 1.766273 6.383821 -1.773997
v -0.952945 1.202620 2.314883
v -0.952945 6.383821 2.314883
v -2.084493 1.202620 -1.386245
v -2.084493 6.383821 -1.386245
v 2.078425 1.202620 -1.395327
v 2.078425 6.383821 -1.395327
v -2.314883 1.202620 -0.952945
v -2.314883 6.383821 -0.952945
v -2.078425 6.383821 1.395327
v 1.395327 1.202620 2.078425
v -2.078425 1.202620 1.395327
v 1.395327 6.383821 2.078425
v 2.314883 6.383821 0.952945
v 2.310703 1.202620 -0.963036
v 2.314883 1.202620 0.952945
v 2.310703 6.383821 -0.963036
v 2.084493 6.383821 1.386245
v 2.084493 1.202620 1.386245
v -1.386245 1.202620 2.084493
v -2.310703 6.383821 0.963036
v -2.310703 1.202620 0.963036
v 2.456314 6.383821 0.483023
v -1.386245 6.383821 2.084493
v 2.456314 1.202620 0.483023
v -2.456314 1.202620 -0.483023
v -2.454183 6.383821 0.493736
v -2.454183 1.202620 0.493736
v -1.766273 6.383821 1.773997
v -2.456314 6.383821 -0.483023
v -1.766273 1.202620 1.773997
v 2.503349 6.383821 -0.005461
v 2.454183 1.202620 -0.493736
v 2.503349 1.202620 -0.005461
v 2.454183 6.383821 -0.493736
v 1.773997 6.383821 1.766273
v 1.773997 1.202620 1.766273
v -2.503349 1.202620 0.005461
v -2.503349 6.383821 0.005461
# 126 vertices

vn -0.880891 0.000000 0.473319
vn -0.830256 0.000000 0.557383
vn 0.002182 0.000000 0.999998
vn 0.100188 0.000000 0.994968
vn -0.771625 0.000000 0.636078
vn -0.095846 0.000000 0.995396
vn 0.924712 0.000000 0.380667
vn 0.882948 0.000000 0.469472
vn -0.292372 0.000000 -0.956305
vn -0.197230 0.000000 -0.980357
vn 0.957571 0.000000 0.288196
vn 0.774393 0.000000 0.632705
vn 0.832680 0.000000 0.553755
vn 0.192950 0.000000 -0.981209
vn 0.192950 0.000000 -0.981209
vn 0.288196 0.000000 -0.957571
vn -0.956305 0.000000 0.292372
vn -0.923043 0.000000 0.384698
vn -0.384698 0.000000 -0.923043
vn -0.473319 0.000000 -0.880891
vn 0.981209 0.000000 0.192950
vn 0.197230 0.000000 0.980357
vn 0.292372 0.000000 0.956305
vn 0.995396 0.000000 0.095846
vn -0.994968 0.000000 0.100188
vn -0.980357 0.000000 0.197230
vn 0.380667 0.000000 -0.924712
vn 0.469472 0.000000 -0.882948
vn -0.705562 0.000000 0.708648
vn -0.192950 0.000000 0.981209
vn -0.632705 0.000000 0.774393
vn -0.288196 0.000000 0.957571
vn 0.999998 0.000000 -0.002182
vn -0.557383 0.000000 -0.830256
vn -0.636078 0.000000 -0.771625
vn 0.994968 0.000000 -0.100188
vn 0.708648 0.000000 0.705562
vn 0.636078 0.000000 0.771625
vn 0.553755 0.000000 -0.832680
vn 0.632705 0.000000 -0.774393
vn -0.995396 0.000000 -0.095846
vn -0.999998 0.000000 0.002182
vn -0.708648 0.000000 -0.705562
vn -0.774393 0.000000 -0.632705
vn 0.980357 0.000000 -0.197230
vn 0.384698 0.000000 0.923043
vn 0.473319 0.000000 0.880891
vn 0.956305 0.000000 -0.292372
vn -0.957571 -0.000000 -0.288196
vn -0.981209 0.000000 -0.192950
vn 0.705562 0.000000 -0.708648
vn 0.771625 0.000000 -0.636078
vn -0.553755 0.000000 0.832680
vn -0.380667 0.000000 0.924712
vn -0.469472 0.000000 0.882948
vn 0.923043 0.000000 -0.384698
vn -0.832680 0.000000 -0.553755
vn -0.882947 -0.000000 -0.469472
vn 0.880891 0.000000 -0.473319
vn 0.557383 0.000000 0.830256
vn 0.830256 0.000000 -0.557383
vn -0.924712 -0.000000 -0.380667
# 62 normals

vt 0.322998 0.007638 0.000000
vt 0.322998 0.995533 0.000000
vt 0.339176 0.995533 0.000000
vt 0.339176 0.007638 0.000000
vt 0.500956 0.007638 0.000000
vt 0.500956 0.995533 0.000000
vt 0.517134 0.995533 0.000000
vt 0.517134 0.007638 0.000000
vt 0.355354 0.995533 0.000000
vt 0.355354 0.007638 0.000000
vt 0.484778 0.007638 0.000000
vt 0.484778 0.995533 0.000000
vt 0.695091 0.007638 0.000000
vt 0.678913 0.007638 0.000000
vt 0.678913 0.995533 0.000000
vt 0.695091 0.995533 0.000000
vt 0.031795 0.007638 0.000000
vt 0.015617 0.007638 0.000000
vt 0.015617 0.995533 0.000000
vt 0.031795 0.995533 0.000000
vt 0.711269 0.007638 0.000000
vt 0.711269 0.995533 0.000000
vt -0.000561 0.007638 0.000000
vt -0.000561 0.995533 0.000000
vt 0.646557 0.007638 0.000000
vt 0.646557 0.995533 0.000000
vt 0.662735 0.995533 0.000000
vt 0.662735 0.007638 0.000000
vt 0.986294 0.995533 0.000000
vt 1.002472 0.995533 0.000000
vt 1.002472 0.007638 0.000000
vt 0.986294 0.007638 0.000000
vt 0.970116 0.007638 0.000000
vt 0.970116 0.995533 0.000000
vt 0.290642 0.007638 0.000000
vt 0.290642 0.995533 0.000000
vt 0.306820 0.995533 0.000000
vt 0.306820 0.007638 0.000000
vt 0.047973 0.007638 0.000000
vt 0.047973 0.995533 0.000000
vt 0.064151 0.995533 0.000000
vt 0.064151 0.007638 0.000000
vt 0.727447 0.995533 0.000000
vt 0.727447 0.007638 0.000000
vt 0.533312 0.995533 0.000000
vt 0.549490 0.995533 0.000000
vt 0.549490 0.007638 0.000000
vt 0.533312 0.007638 0.000000
vt 0.743625 0.995533 0.000000
vt 0.743625 0.007638 0.000000
vt 0.258287 0.007638 0.000000
vt 0.258287 0.995533 0.000000
vt 0.274464 0.995533 0.000000
vt 0.274464 0.007638 0.000000
vt 0.953938 0.995533 0.000000
vt 0.953938 0.007638 0.000000
vt 0.937760 0.007638 0.000000
vt 0.937760 0.995533 0.000000
vt 0.371532 0.995533 0.000000
vt 0.371532 0.007638 0.000000
vt 0.468600 0.995533 0.000000
vt 0.468600 0.007638 0.000000
vt 0.387710 0.995533 0.000000
vt 0.387710 0.007638 0.000000
vt 0.452422 0.007638 0.000000
vt 0.452422 0.995533 0.000000
vt 0.759803 0.995533 0.000000
vt 0.759803 0.007638 0.000000
vt 0.080329 0.995533 0.000000
vt 0.096507 0.995533 0.000000
vt 0.096507 0.007638 0.000000
vt 0.080329 0.007638 0.000000
vt 0.775981 0.995533 0.000000
vt 0.775981 0.007638 0.000000
vt 0.630379 0.007638 0.000000
vt 0.614201 0.007638 0.000000
vt 0.614201 0.995533 0.000000
vt 0.630379 0.995533 0.000000
vt 0.921582 0.007638 0.000000
vt 0.921582 0.995533 0.000000
vt 0.905404 0.007638 0.000000
vt 0.905404 0.995533 0.000000
vt 0.225931 0.007638 0.000000
vt 0.225931 0.995533 0.000000
vt 0.242109 0.995533 0.000000
vt 0.242109 0.007638 0.000000
vt 0.112685 0.995533 0.000000
vt 0.128863 0.995533 0.000000
vt 0.128863 0.007638 0.000000
vt 0.112685 0.007638 0.000000
vt 0.792159 0.995533 0.000000
vt 0.792159 0.007638 0.000000
vt 0.565667 0.995533 0.000000
vt 0.581845 0.995533 0.000000
vt 0.581845 0.007638 0.000000
vt 0.565668 0.007638 0.000000
vt 0.808337 0.995533 0.000000
vt 0.808337 0.007638 0.000000
vt 0.193575 0.007638 0.000000
vt 0.193575 0.995533 0.000000
vt 0.209753 0.995533 0.000000
vt 0.209753 0.007638 0.000000
vt 0.889226 0.995533 0.000000
vt 0.889226 0.007638 0.000000
vt 0.873048 0.007638 0.000000
vt 0.873048 0.995533 0.000000
vt 0.403888 0.995533 0.000000
vt 0.403888 0.007638 0.000000
vt 0.436244 0.007638 0.000000
vt 0.436244 0.995533 0.000000
vt 0.420066 0.995533 0.000000
vt 0.420066 0.007638 0.000000
vt 0.824515 0.995533 0.000000
vt 0.824515 0.007638 0.000000
vt 0.145041 0.995533 0.000000
vt 0.161219 0.995533 0.000000
vt 0.161219 0.007638 0.000000
vt 0.145041 0.007638 0.000000
vt 0.840692 0.995533 0.000000
vt 0.840692 0.007638 0.000000
vt 0.598023 0.995533 0.000000
vt 0.598023 0.007638 0.000000
vt 0.856870 0.995533 0.000000
vt 0.856870 0.007638 0.000000
vt 0.177397 0.995533 0.000000
vt 0.177397 0.007638 0.000000
# 126 texture coordinates

o Label
usemtl default
f 99/4/2 97/3/2 46/2/1 45/1/1
f 57/8/4 58/7/4 66/6/3 65/5/3
f 47/10/5 48/9/5 97/3/2 99/4/2
f 65/5/3 66/6/3 56/12/6 55/11/6
f 101/16/7 4/15/8 3/14/8 103/13/7
f 28/20/9 68/19/10 67/18/10 27/17/9
f 6/22/11 101/16/7 103/13/7 5/21/11
f 67/18/10 68/19/10 26/24/10 25/23/10
f 106/28/13 105/27/13 2/26/12 1/25/12
f 69/32/14 23/31/15 24/30/15 70/29/14
f 106/28/13 3/14/8 4/15/8 105/27/13
f 69/32/14 70/29/14 22/34/16 21/33/16
f 109/38/18 108/37/18 44/36/17 43/35/17
f 29/42/20 30/41/20 72/40/19 71/39/19
f 109/38/18 45/1/1 46/2/1 108/37/18
f 71/39/19 72/40/19 28/20/9 27/17/9
f 112/44/21 110/43/21 6/22/11 5/21/11
f 73/48/22 59/47/23 60/46/23 74/45/22
f 112/44/21 7/50/24 8/49/24 110/43/21
f 73/48/22 74/45/22 58/7/4 57/8/4
f 115/54/26 114/53/26 42/52/25 41/51/25
f 75/56/27 21/33/16 22/34/16 76/55/27
f 115/54/26 43/35/17 44/36/17 114/53/26
f 75/56/27 76/55/27 20/58/28 19/57/28
f 118/60/29 116/59/29 48/9/5 47/10/5
f 77/62/30 55/11/6 56/12/6 78/61/30
f 118/60/29 49/64/31 50/63/31 116/59/29
f 77/62/30 78/61/30 54/66/32 53/65/32
f 121/68/33 119/67/33 8/49/24 7/50/24
f 79/72/34 31/71/35 32/70/35 80/69/34
f 121/68/33 9/74/36 10/73/36 119/67/33
f 79/72/34 80/69/34 30/41/20 29/42/20
f 123/78/37 64/77/38 63/76/38 124/75/37
f 19/57/28 20/58/28 82/80/39 81/79/39
f 124/75/37 1/25/12 2/26/12 123/78/37
f 81/79/39 82/80/39 18/82/40 17/81/40
f 125/86/42 126/85/42 40/84/41 39/83/41
f 83/90/43 33/89/44 34/88/44 84/87/43
f 125/86/42 41/51/25 42/52/25 126/85/42
f 83/90/43 84/87/43 32/70/35 31/71/35
f 120/92/45 122/91/45 10/73/36 9/74/36
f 85/96/46 61/95/47 62/94/47 86/93/46
f 120/92/45 11/98/48 12/97/48 122/91/45
f 85/96/46 86/93/46 60/46/23 59/47/23
f 113/102/50 117/101/50 38/100/49 37/99/49
f 87/104/51 17/81/40 18/82/40 88/103/51
f 113/102/50 39/83/41 40/84/41 117/101/50
f 87/104/51 88/103/51 16/106/52 15/105/52
f 49/64/31 107/108/53 111/107/53 50/63/31
f 53/65/32 54/66/32 90/110/54 89/109/54
f 107/108/53 51/112/55 52/111/55 111/107/53
f 89/109/54 90/110/54 52/111/55 51/112/55
f 102/114/56 104/113/56 12/97/48 11/98/48
f 91/118/57 35/117/58 36/116/58 92/115/57
f 102/114/56 13/120/59 14/119/59 104/113/56
f 91/118/57 92/115/57 34/88/44 33/89/44
f 98/122/60 100/121/60 62/94/47 61/95/47
f 93/124/61 15/105/52 16/106/52 94/123/61
f 98/122/60 63/76/38 64/77/38 100/121/60
f 93/124/61 94/123/61 14/119/59 13/120/59
f 95/126/62 96/125/62 36/116/58 35/117/58
f 38/100/49 96/125/62 95/126/62 37/99/49

